<svg xmlns="http://www.w3.org/2000/svg" width="23.969" height="24.743" viewBox="0 0 23.969 24.743"><defs><style>.a{fill:lightgray;stroke:#b2b2b2;}</style></defs><g transform="translate(0.012 0.5)"><path class="a" d="M20.268,19.1v5.424H3.678V19.1H.489v7.018a1.594,1.594,0,0,0,1.6,1.594H21.86a1.594,1.594,0,0,0,1.6-1.594V19.1Z" transform="translate(0 -3.974)"/><path class="a" d="M13.344,14.593,8.779,9.077s-.695-.656.059-.656H11.41V.391S11.308,0,11.9,0h3.621c.425,0,.415.329.415.329V8.256h2.374c.914,0,.226.687.226.687s-3.884,5.156-4.426,5.7A.506.506,0,0,1,13.344,14.593Z" transform="translate(-1.664 0)"/></g></svg>