<svg xmlns="http://www.w3.org/2000/svg" width="21.535" height="21.5" viewBox="0 0 21.535 21.5"><defs><style>.a{opacity:0.29;}.b{stroke:#000;stroke-width:0.5px;}</style></defs><g class="a" transform="translate(-1.788 -2.785)"><g transform="translate(2.038 3.035)"><path class="b" d="M3.5,6.524H7.052a3.005,3.005,0,0,0,5.92,0H23.534a.5.5,0,0,0,0-1H12.972a3.005,3.005,0,0,0-5.92,0H3.5a.5.5,0,1,0,0,1Zm6.511-2.5a2,2,0,1,1-2,2A2,2,0,0,1,10.012,4.019Z" transform="translate(-3 -3.035)"/><path class="b" d="M23.534,20.522H19.984a3.005,3.005,0,0,0-5.92,0H3.5a.5.5,0,0,0,0,1H14.064a3.005,3.005,0,0,0,5.92,0h3.551a.5.5,0,0,0,0-1Zm-6.511,2.5a2,2,0,1,1,2-2A2,2,0,0,1,17.024,23.026Z" transform="translate(-3 -10.523)"/><path class="b" d="M23.534,35.522H12.972a3.005,3.005,0,0,0-5.92,0H3.5a.5.5,0,1,0,0,1H7.052a3.005,3.005,0,0,0,5.92,0H23.534a.5.5,0,1,0,0-1Zm-13.523,2.5a2,2,0,1,1,2-2A2,2,0,0,1,10.012,38.026Z" transform="translate(-3 -18.01)"/></g></g></svg>