<svg xmlns="http://www.w3.org/2000/svg" width="25.131" height="23.291" viewBox="0 0 25.131 23.291"><defs><style>.a{fill:#d7d7d7;}</style></defs><g transform="translate(35 -17.25)"><g transform="translate(-35 17.25)"><path class="a" d="M24.411,228.257a.717.717,0,0,0-.72.72v6.549a3.231,3.231,0,0,1-3.227,3.227H4.667a3.231,3.231,0,0,1-3.227-3.227V228.87a.72.72,0,0,0-1.44,0v6.656a4.672,4.672,0,0,0,4.667,4.667h15.8a4.672,4.672,0,0,0,4.667-4.667v-6.549A.72.72,0,0,0,24.411,228.257Z" transform="translate(0 -216.902)"/><path class="a" d="M137.55,23.058l3.349-3.349V34.317a.72.72,0,1,0,1.44,0V19.709l3.349,3.349a.725.725,0,0,0,.507.213.694.694,0,0,0,.507-.213.718.718,0,0,0,0-1.019l-4.576-4.576a.729.729,0,0,0-.507-.213.7.7,0,0,0-.507.213l-4.576,4.576a.718.718,0,0,0,1.013,1.019Z" transform="translate(-129.054 -17.25)"/></g></g></svg>